<svg id="Layer_1" data-name="Layer 1" xmlns="http://www.w3.org/2000/svg" xmlns:xlink="http://www.w3.org/1999/xlink" width="132" height="40" viewBox="0 0 132 40"><defs><style>.cls-1{fill:url(#linear-gradient);}.cls-2{fill:url(#linear-gradient-2);}.cls-3{fill:#fff;}.cls-4{fill:#ee4036;}</style><linearGradient id="linear-gradient" x1="74.25" y1="22.12" x2="109" y2="22.12" gradientUnits="userSpaceOnUse"><stop offset="0" stop-color="#c0272d"/><stop offset="1" stop-color="#f05a26"/></linearGradient><linearGradient id="linear-gradient-2" x1="23" y1="21.92" x2="80.44" y2="21.92" xlink:href="#linear-gradient"/></defs><title>logo</title><path class="cls-1" d="M100.78,4.27h-11l2.53,1.37a1.69,1.69,0,0,1-.15,1.61l-5,1.6h12c2.9,0,4.11,1.35,4.11,3.51A7.75,7.75,0,0,1,103,14l-.88,4.25H86.3c-7.2,0-10.23,3.09-11.72,10.17a16.12,16.12,0,0,0-.33,3.83c0,5,2.76,7.75,8.08,7.75H97.55c4.18,0,6-1.75,6.74-5.39L108.66,14a10.07,10.07,0,0,0,.34-2.42C109,7.44,106.44,4.27,100.78,4.27ZM98.9,33.57a2.21,2.21,0,0,1-2.29,1.82h-13c-2.56,0-3.44-1.35-3.44-3.5a16.21,16.21,0,0,1,.34-2.83c.81-3.84,2.29-6.26,5.79-6.26h14.89Z"/><path class="cls-2" d="M79.39,8.85l1-4.58H78.83c-9.49,0-14,4.05-15.89,12.87L59.06,35.39H35.26c-5,0-6.33-2.69-6.33-6.26a29.12,29.12,0,0,1,.6-5.12H50.75c4.71,0,5.86-2.16,6.73-6.27a16.21,16.21,0,0,0,.34-3.9c0-7.61-6.13-10-14.35-10-12,0-16.77,4.58-19.53,17.71A37.14,37.14,0,0,0,23,29.26C23,35.79,25.9,40,33.78,40h30l4.58-21.42C69.74,12,72.7,8.85,78.9,8.85ZM43.2,8.45c5.12,0,8.69,1.62,8.69,6.26a13.47,13.47,0,0,1-.33,2.63v.27a2.06,2.06,0,0,1-2,1.82h-19C32.29,11.28,35.86,8.45,43.2,8.45Z"/><path class="cls-3" d="M89.75,4.27,82.69.47a1.05,1.05,0,0,0-1.54.7l-.71,3.1-1,4.58-.19.83a1.06,1.06,0,0,0,1.37,1.25l6.52-2.08L91.7,7.39a1.07,1.07,0,0,0,.18-2Z"/><path class="cls-4" d="M80.24,11.3A1.39,1.39,0,0,1,78.9,9.61L80.84,1.1a1.38,1.38,0,0,1,.78-.95A1.35,1.35,0,0,1,82.84.2l9.19,5a1.37,1.37,0,0,1,.72,1.35,1.35,1.35,0,0,1-1,1.18L80.66,11.23A1.54,1.54,0,0,1,80.24,11.3Zm2-10.65a.71.71,0,0,0-.32.07.76.76,0,0,0-.42.52l-2,8.51a.76.76,0,0,0,1,.89L91.61,7.09a.74.74,0,0,0,.52-.65.75.75,0,0,0-.39-.74L89.6,4.55h0l-7-3.81A.8.8,0,0,0,82.19.65Z"/></svg>